<svg xmlns="http://www.w3.org/2000/svg" viewBox="0 0 600 340" font-family="Arial, Helvetica, sans-serif">
  <rect width="600" height="340" rx="18" fill="#0a0e16"/>
  <rect x="1" y="1" width="598" height="338" rx="17" fill="none" stroke="#1c2433"/>

  <!-- ground -->
  <line x1="40" y1="280" x2="560" y2="280" stroke="#243044" stroke-width="2"/>

  <!-- factory -->
  <rect x="70" y="170" width="200" height="110" fill="#16202e" stroke="#2b3a52" stroke-width="2"/>
  <path d="M70 170 L110 140 L110 170 Z M110 170 L150 140 L150 170 Z M150 170 L190 140 L190 170 Z M190 170 L230 140 L230 170 Z M230 170 L270 140 L270 170 Z"
        fill="#1d2a3d" stroke="#2b3a52" stroke-width="1.5"/>
  <rect x="120" y="116" width="22" height="54" fill="#16202e" stroke="#2b3a52"/>
  <circle cx="131" cy="104" r="7" fill="#25f4ee" opacity="0.7"/>
  <circle cx="142" cy="90" r="5" fill="#25f4ee" opacity="0.45"/>
  <circle cx="150" cy="78" r="4" fill="#25f4ee" opacity="0.3"/>
  <g fill="#0c1420" stroke="#25f4ee" stroke-opacity="0.4">
    <rect x="92" y="200" width="34" height="34"/><rect x="146" y="200" width="34" height="34"/><rect x="200" y="200" width="34" height="34"/>
  </g>

  <!-- box -->
  <rect x="330" y="206" width="86" height="74" fill="#c98a3a" stroke="#a36f24" stroke-width="2"/>
  <line x1="373" y1="206" x2="373" y2="280" stroke="#a36f24" stroke-width="2"/>
  <rect x="350" y="206" width="46" height="14" fill="#dba94f" stroke="#a36f24"/>

  <!-- fast shipping arrow -->
  <path d="M440 243 L520 243 L520 230 L552 250 L520 270 L520 257 L440 257 Z" fill="#fe2c55"/>
  <g stroke="#fe2c55" stroke-width="3" stroke-linecap="round" opacity="0.7">
    <line x1="420" y1="243" x2="434" y2="243"/><line x1="424" y1="232" x2="434" y2="232"/><line x1="424" y1="254" x2="434" y2="254"/>
  </g>

  <text x="40" y="50" fill="#fe2c55" font-size="13" font-weight="700" letter-spacing="2">MANUFACTURA + ENVÍO</text>
  <text x="40" y="82" fill="#f3f4f8" font-size="24" font-weight="800">Producimos y enviamos rápido</text>
  <text x="40" y="108" fill="#8a8a9c" font-size="14">+15 años de experiencia · cumple los plazos de TikTok</text>
</svg>
